<svg xmlns="http://www.w3.org/2000/svg"
      version="1.1"
      width="20"
      height="20"
      fill="#ffffff"
      >
    <rect width="1" height="1" x="2" y="2" ></rect><rect width="1" height="1" x="3" y="2" ></rect><rect width="1" height="1" x="4" y="2" ></rect><rect width="1" height="1" x="5" y="2" ></rect><rect width="1" height="1" x="6" y="2" ></rect><rect width="1" height="1" x="7" y="2" ></rect><rect width="1" height="1" x="8" y="2" ></rect><rect width="1" height="1" x="9" y="2" ></rect><rect width="1" height="1" x="10" y="2" ></rect><rect width="1" height="1" x="11" y="2" ></rect><rect width="1" height="1" x="12" y="2" ></rect><rect width="1" height="1" x="13" y="2" ></rect><rect width="1" height="1" x="14" y="2" ></rect><rect width="1" height="1" x="15" y="2" ></rect><rect width="1" height="1" x="16" y="2" ></rect><rect width="1" height="1" x="17" y="2" ></rect><rect width="1" height="1" x="2" y="3" ></rect><rect width="1" height="1" x="5" y="3" ></rect><rect width="1" height="1" x="6" y="3" ></rect><rect width="1" height="1" x="7" y="3" ></rect><rect width="1" height="1" x="8" y="3" ></rect><rect width="1" height="1" x="11" y="3" ></rect><rect width="1" height="1" x="12" y="3" ></rect><rect width="1" height="1" x="13" y="3" ></rect><rect width="1" height="1" x="14" y="3" ></rect><rect width="1" height="1" x="17" y="3" ></rect><rect width="1" height="1" x="2" y="4" ></rect><rect width="1" height="1" x="5" y="4" ></rect><rect width="1" height="1" x="6" y="4" ></rect><rect width="1" height="1" x="7" y="4" ></rect><rect width="1" height="1" x="8" y="4" ></rect><rect width="1" height="1" x="11" y="4" ></rect><rect width="1" height="1" x="12" y="4" ></rect><rect width="1" height="1" x="13" y="4" ></rect><rect width="1" height="1" x="14" y="4" ></rect><rect width="1" height="1" x="17" y="4" ></rect><rect width="1" height="1" x="2" y="5" ></rect><rect width="1" height="1" x="5" y="5" ></rect><rect width="1" height="1" x="6" y="5" ></rect><rect width="1" height="1" x="7" y="5" ></rect><rect width="1" height="1" x="8" y="5" ></rect><rect width="1" height="1" x="11" y="5" ></rect><rect width="1" height="1" x="12" y="5" ></rect><rect width="1" height="1" x="13" y="5" ></rect><rect width="1" height="1" x="14" y="5" ></rect><rect width="1" height="1" x="17" y="5" ></rect><rect width="1" height="1" x="2" y="6" ></rect><rect width="1" height="1" x="5" y="6" ></rect><rect width="1" height="1" x="6" y="6" ></rect><rect width="1" height="1" x="7" y="6" ></rect><rect width="1" height="1" x="8" y="6" ></rect><rect width="1" height="1" x="11" y="6" ></rect><rect width="1" height="1" x="12" y="6" ></rect><rect width="1" height="1" x="13" y="6" ></rect><rect width="1" height="1" x="14" y="6" ></rect><rect width="1" height="1" x="17" y="6" ></rect><rect width="1" height="1" x="2" y="7" ></rect><rect width="1" height="1" x="5" y="7" ></rect><rect width="1" height="1" x="6" y="7" ></rect><rect width="1" height="1" x="7" y="7" ></rect><rect width="1" height="1" x="8" y="7" ></rect><rect width="1" height="1" x="11" y="7" ></rect><rect width="1" height="1" x="12" y="7" ></rect><rect width="1" height="1" x="13" y="7" ></rect><rect width="1" height="1" x="14" y="7" ></rect><rect width="1" height="1" x="17" y="7" ></rect><rect width="1" height="1" x="2" y="8" ></rect><rect width="1" height="1" x="5" y="8" ></rect><rect width="1" height="1" x="6" y="8" ></rect><rect width="1" height="1" x="7" y="8" ></rect><rect width="1" height="1" x="8" y="8" ></rect><rect width="1" height="1" x="11" y="8" ></rect><rect width="1" height="1" x="12" y="8" ></rect><rect width="1" height="1" x="13" y="8" ></rect><rect width="1" height="1" x="14" y="8" ></rect><rect width="1" height="1" x="17" y="8" ></rect><rect width="1" height="1" x="2" y="9" ></rect><rect width="1" height="1" x="5" y="9" ></rect><rect width="1" height="1" x="6" y="9" ></rect><rect width="1" height="1" x="7" y="9" ></rect><rect width="1" height="1" x="8" y="9" ></rect><rect width="1" height="1" x="11" y="9" ></rect><rect width="1" height="1" x="12" y="9" ></rect><rect width="1" height="1" x="13" y="9" ></rect><rect width="1" height="1" x="14" y="9" ></rect><rect width="1" height="1" x="17" y="9" ></rect><rect width="1" height="1" x="2" y="10" ></rect><rect width="1" height="1" x="5" y="10" ></rect><rect width="1" height="1" x="6" y="10" ></rect><rect width="1" height="1" x="7" y="10" ></rect><rect width="1" height="1" x="8" y="10" ></rect><rect width="1" height="1" x="11" y="10" ></rect><rect width="1" height="1" x="12" y="10" ></rect><rect width="1" height="1" x="13" y="10" ></rect><rect width="1" height="1" x="14" y="10" ></rect><rect width="1" height="1" x="17" y="10" ></rect><rect width="1" height="1" x="2" y="11" ></rect><rect width="1" height="1" x="5" y="11" ></rect><rect width="1" height="1" x="6" y="11" ></rect><rect width="1" height="1" x="7" y="11" ></rect><rect width="1" height="1" x="8" y="11" ></rect><rect width="1" height="1" x="11" y="11" ></rect><rect width="1" height="1" x="12" y="11" ></rect><rect width="1" height="1" x="13" y="11" ></rect><rect width="1" height="1" x="14" y="11" ></rect><rect width="1" height="1" x="17" y="11" ></rect><rect width="1" height="1" x="2" y="12" ></rect><rect width="1" height="1" x="7" y="12" ></rect><rect width="1" height="1" x="12" y="12" ></rect><rect width="1" height="1" x="17" y="12" ></rect><rect width="1" height="1" x="2" y="13" ></rect><rect width="1" height="1" x="7" y="13" ></rect><rect width="1" height="1" x="12" y="13" ></rect><rect width="1" height="1" x="17" y="13" ></rect><rect width="1" height="1" x="2" y="14" ></rect><rect width="1" height="1" x="7" y="14" ></rect><rect width="1" height="1" x="12" y="14" ></rect><rect width="1" height="1" x="17" y="14" ></rect><rect width="1" height="1" x="2" y="15" ></rect><rect width="1" height="1" x="7" y="15" ></rect><rect width="1" height="1" x="12" y="15" ></rect><rect width="1" height="1" x="17" y="15" ></rect><rect width="1" height="1" x="2" y="16" ></rect><rect width="1" height="1" x="7" y="16" ></rect><rect width="1" height="1" x="12" y="16" ></rect><rect width="1" height="1" x="17" y="16" ></rect><rect width="1" height="1" x="2" y="17" ></rect><rect width="1" height="1" x="3" y="17" ></rect><rect width="1" height="1" x="4" y="17" ></rect><rect width="1" height="1" x="5" y="17" ></rect><rect width="1" height="1" x="6" y="17" ></rect><rect width="1" height="1" x="7" y="17" ></rect><rect width="1" height="1" x="8" y="17" ></rect><rect width="1" height="1" x="9" y="17" ></rect><rect width="1" height="1" x="10" y="17" ></rect><rect width="1" height="1" x="11" y="17" ></rect><rect width="1" height="1" x="12" y="17" ></rect><rect width="1" height="1" x="13" y="17" ></rect><rect width="1" height="1" x="14" y="17" ></rect><rect width="1" height="1" x="15" y="17" ></rect><rect width="1" height="1" x="16" y="17" ></rect><rect width="1" height="1" x="17" y="17" ></rect>
 </svg>